<svg version="1" xmlns="http://www.w3.org/2000/svg" width="3413.333" height="3413.333" viewBox="0 0 2560.000000 2560.000000"><path d="M2029.5 212c-3.3 1.7-13.6 6.6-23 11-9.3 4.4-17.7 8.4-18.5 8.8-1.3.8-1.5 7.2-1.5 47.8v46.9l-23.1.3c-26.5.3-23.5-.9-28.8 11.2-1.6 3.5-5.7 12.3-9.1 19.5-3.5 7.1-6.6 14-7 15.2l-.6 2.3h33.9c26.3 0 34.1.3 34.4 1.2.2.7.4 57.9.4 127-.1 116.3 0 125.8 1.5 125.8 1 0 10-4 20.1-8.9 10.1-4.8 21.2-10.1 24.6-11.6 3.4-1.5 6.3-3.2 6.3-3.6.1-.5.2-52.3.3-115.2l.1-114.2 23.4-.5 23.3-.5 10.4-21.9c5.7-12.1 10.4-22.8 10.4-23.8 0-1.7-1.9-1.8-33.7-2l-33.8-.3V268c0-67.2 1-61.4-10-56zM615.5 220.5c-30.5 5-49.5 18.2-60.6 41.9-3.4 7.3-7.5 23.1-8.4 32.9-.5 5-1 317.5-.6 331.4.2 3.9-.4 4.1 33.6-12.3 6.6-3.2 12.2-5.8 12.5-5.9.3 0 1.9-.9 3.7-1.8l3.2-1.7v-75.7c0-41.7 0-78.2.1-81.1V443h160.7l.1 91.7c0 50.5.1 92.4.1 93 .2 2.7 1.6 2.1 38.2-15.4l14.7-7-.1-153.4c0-144.3-.1-154-1.8-164.2-1-6-2.6-13-3.4-15.5-3.3-9.7-9.6-20.8-15.6-27.4-11.4-12.7-24.6-19.4-47.9-24.4-1.9-.4-29.8-.9-62-1-44.7-.2-60.4.1-66.5 1.1zm116.2 48c3.5.8 7.8 2.2 9.6 3.1 4.5 2.3 11 9.3 13.4 14.5 4.5 9.7 4.7 12.9 4.8 61.9v46.5l-80.2.3-80.3.2-.1-5.2c-.3-25.1.1-85.1.6-89.2 2.2-17 12.8-29.7 26.9-32.2 1.7-.3 3.2-.7 3.4-.9.3-.2 21.8-.4 48-.5 38.5 0 48.7.3 53.9 1.5zM976 220.5c-28.7 4.9-46.8 20.4-54.3 46.5-3.5 12.1-4 19.2-4 56.2V354H899.4l-10.7 22.7c-5.9 12.6-10.7 23.4-10.7 24 0 1 4.6 1.3 19.9 1.3h19.8l-.1 113.5c-.1 104.9 0 113.5 1.6 113.5 1.7 0 7.9-2.8 35-15.8l16.7-8v-97.8-101.7l.1-3.7h65.9l5-10.5c2.8-5.8 5.1-10.7 5.1-10.9 0-.2 2.7-5.9 5.9-12.7 3.3-6.8 5.7-12.7 5.5-13.1-.3-.4-20.1-.8-44-.8H971l-.1-5.3c-.1-19.9.1-57.6.5-59.3 2-9.9 6-16 12.9-19.7 4-2.1 5.5-2.2 30.9-2.5 19.1-.2 26.9-.7 27.5-1.5.5-.7 2.4-4.6 4.3-8.7 3.7-8.2 11.1-24.2 14.1-30.4 3.9-8.2 6.9-7.6-37.8-7.5-27.4.1-42.1.5-47.3 1.4zM1221.9 219.4c-.2.2-2.9.6-5.9 1-30.7 3.5-51.3 22-57.6 52-2.3 11-2.6 16.8-2.7 50.3V354H1137.4l-3.4 7.2c-1.9 4-6.7 14.2-10.7 22.6-4 8.5-7.3 16-7.3 16.8 0 1.2 3.4 1.4 19.8 1.4h19.9l.1 112.2c0 61.8.1 112.9.1 113.5.2 2.2 2.8 1.5 12.4-3.1 5.1-2.4 15.5-7.4 23.2-11 7.7-3.6 14.7-7 15.5-7.4 1.3-.8 1.5-13.2 1.7-100.3.1-54.7.2-100.4.3-101.7V402h66l3.8-8.3c2.2-4.5 6.7-14.3 10.2-21.7 3.5-7.4 6.6-13.9 7.1-14.4.4-.5.5-1.5.2-2.2-.4-1.2-8-1.4-43.9-1.4H1209l-.1-2.8c-.2-12.3.2-60.1.5-61.8 2-9.9 6-16 12.9-19.7 4-2.1 5.6-2.2 30.2-2.5 14.3-.1 26.5-.4 27-.6 1-.4 1.8-2 6.3-11.6 1.1-2.5 4.6-9.9 7.6-16.5 3.1-6.6 6.1-12.8 6.6-13.7.6-1 1-2.7 1-3.8 0-2-.6-2-39.3-2-21.7 0-39.6.2-39.8.4zM1418.9 327.5c-.3.2-2.9.7-5.9 1-7.3.8-20.7 5.5-27.3 9.5-17.5 10.6-28.3 30-30.5 54.5-.8 9.5-.8 151.2.1 160 2.4 25.3 12.7 43.8 30.7 54.6 6.5 4 19 8.3 28.5 9.8 6.8 1.2 97 .9 102.5-.3 6.7-1.4 20.5-6.4 25.5-9.2 7.4-4.2 17.4-14.8 21.7-22.9 7.7-14.9 9.6-26 9.7-58.8.2-22.2 0-24.7-1.4-24.7-.9 0-8.5 3.2-16.8 7.1-8.4 3.9-19.6 9.1-24.9 11.7l-9.8 4.5-.1 10.1c0 5.6-.3 11.2-.5 12.6-1.9 10.5-6.2 17.1-13.2 20.3-4.5 2.1-6.2 2.2-41.2 2.4-24 .2-37.8-.1-40.4-.8-6.4-1.8-11.3-5.7-14.1-11.2-3.3-6.7-3.2-8.9.6-11.8 5.3-4 67.2-51.8 70.4-54.3 1.7-1.3 23-17.8 47.4-36.7l44.3-34.3-.5-16c-.3-8.9-.8-17.5-1.2-19.1-5.3-25.9-15.6-40.7-34.7-49.9-16.1-7.8-20.8-8.3-73.4-8.5-24.8 0-45.3.1-45.5.4zm85.5 49.2c6.5 2.2 11.9 7.6 14.1 14.3 3.4 10.2 3.5 10-9.4 20.3-6.4 5-11.8 9.4-12.1 9.7-.3.3-10.8 8.9-23.5 19.1-12.6 10.2-32.2 25.9-43.5 35-11.3 9.1-21 16.8-21.5 17.1-1.6 1-1.2-92.4.4-98.2 2.5-9.1 8.4-15.5 16.6-17.9 1.7-.5 19-.9 38.5-1 30.3 0 36.2.2 40.4 1.6zM1710.5 328.4c-19.6 3.7-33.7 11.8-44.4 25.7-4 5.1-9.5 18.1-10.7 24.9-.3 1.4-.7 3.1-.9 3.8-1.5 4.1-1.9 25-1.9 90.2 0 39.9.3 75.7.6 79.6.9 10.8 3.5 20 8.4 29.9 8.3 17.2 21.2 27 42.9 32.8 7.7 2.1 10 2.2 55.5 2.2 26.1 0 49.5-.3 52-.6 9.4-1.4 22.1-5.6 27.2-9.1 1.4-1 3.1-1.8 3.7-1.8 2.6 0 15.8-14.7 19.3-21.5 7.9-15.4 9.5-25.4 9.7-58.7.2-20.9 0-24.8-1.2-24.8-1.7 0-7 2.3-24.7 10.7-6.9 3.3-15.8 7.4-19.7 9.3l-7.3 3.3-.1 10.1c-.1 19.4-3.6 27.8-13.6 32.7l-4.8 2.4h-77l-4.5-2.4c-2.5-1.3-5.3-3.3-6.2-4.4-2.9-3.3-5.7-9.9-6.5-15.7-1-6.6-.9-146 .1-151 2.1-10.3 7.4-16.6 16.6-19.8.8-.3 18-.7 38.1-.9 30.9-.3 37.3-.1 40.9 1.2 8.9 3.1 13.5 8.8 15.9 19.5.6 2.5 1.1 14.3 1.1 26.2 0 18.6.2 21.8 1.5 21.8s10.2-4 41.4-18.6l10.4-4.8-.6-16.1c-.6-17.2-.7-18.1-3.8-29.5-2.9-10.7-8.4-20.5-15.6-27.7-9.6-9.7-18.8-14.3-37.8-18.9-1.6-.4-24.1-.9-50-1-35-.2-48.8.1-54 1zM1044.7 791.7c-.1.1-9.9.4-21.7.7-24.8.7-43.4 1.5-69 3.1-3 .2-10.2.6-16 1-5.8.3-12.5.8-15 1-2.5.2-8.3.7-13 1-4.7.3-9.6.8-11 1-1.4.2-6.8.7-12 1-5.2.3-10.6.8-12 1-1.4.2-5.9.6-10 1s-8.6.8-10 1c-1.4.2-5.9.7-10 1-4.1.4-8.2.9-9 1-.8.2-4.9.6-9 1s-8.2.8-9 1c-.9.2-4.6.6-8.2.9-3.7.4-7.5.8-8.5 1-1 .2-4.7.7-8.3 1.1-3.6.4-7.2.8-8 1-.8.2-4.4.6-8 1-3.6.4-7.2.8-8 1-.9.2-4.3.6-7.5 1-3.3.4-6.7.9-7.6 1-.9.2-4 .6-7 1-3 .3-6.5.8-7.9 1-3.4.6-6.2 1.1-23 3.5-8 1.1-15.6 2.3-17 2.5-1.4.3-4.5.7-7 1.1-2.5.3-5.3.8-6.3 1-.9.3-3.4.7-5.5.9-2 .3-4.8.7-6.2 1-3.1.6-7.3 1.3-12.5 2-2.2.3-4.7.7-5.5 1-.8.2-3.3.6-5.5 1-3.6.5-11.9 1.9-17 2.9-1.1.2-6.3 1.1-11.5 2-13.8 2.4-14.1 2.4-31 5.7-8.5 1.6-17.1 3.2-19 3.5-1.9.3-5.1.9-7 1.4-1.9.5-5.1 1.2-7 1.5-3.1.5-30.9 6.1-35 7-.8.2-8 1.7-16 3.4s-22.6 4.9-32.5 7.1c-9.9 2.3-19.1 4.4-20.5 4.6-1.4.3-10.8 2.5-21 5s-19.3 4.7-20.4 4.9c-7.6 1.6-23.5 5.9-23.2 6.3.3.2 3.3-.3 6.8-1.2 3.5-.8 7.9-1.8 9.8-2.1 1.9-.3 12.3-2.4 23-4.5 10.7-2.2 20.6-4.1 22-4.4 1.4-.2 6.3-1.1 11-2 10.3-1.9 33.1-5.8 53-9.1 1.4-.2 4.5-.7 7-1 2.5-.3 5.6-.7 7-1 2.9-.5 6.8-1.2 12.5-2 2.2-.4 5.1-.8 6.5-1 1.4-.2 4.5-.7 7-1 2.5-.3 5.6-.8 7-1 1.4-.2 6.3-.9 11-1.5s9.6-1.3 11-1.5c1.4-.2 4.8-.7 7.5-1 2.8-.3 6.1-.7 7.5-1 1.4-.2 4.8-.6 7.5-.9 2.8-.3 8.8-1.1 13.5-1.6 4.7-.6 10.5-1.3 13-1.5 4.8-.5 10.9-1.2 17.5-2 2.2-.3 6.5-.7 9.6-1 3-.2 7.5-.6 10-.9 7.4-.9 17.2-1.7 33.9-3 4.1-.4 9.5-.8 12-1.1 2.5-.3 8.6-.7 13.5-1 5-.3 11.5-.7 14.5-1 33.9-2.8 70.6-3.9 131.5-4 48.1 0 70.3.5 95 2 17.8 1 27.4 1.7 30 2 1.7.2 7.1.7 12 1 5 .4 9.9.8 11 .9 1.1.2 5.6.6 10 1s9.1.9 10.5 1.1c1.4.2 5.2.7 8.5 1 3.3.4 7.1.8 8.5 1 1.4.3 4.8.7 7.5 1 2.8.3 6.1.8 7.5 1 1.4.2 4.5.7 7 1 7.1 1 18.3 2.7 32 5 6.1 1.1 24.1 4.5 30.5 5.9 7.6 1.6 10.9 2.3 15.3 3.1 27.7 5.6 93.9 25.3 113.7 34 1.7.7 6.6 2.7 11 4.5 8.2 3.2 9.7 3.9 22.5 9.7 71.8 33 127.6 75.3 168.8 128.2 6.9 8.8 18.7 25.6 22.7 32.3 9.1 15.1 24.5 44.9 24.5 47.2 0 .4-4.2.4-9.2.1-14.6-1-35.8-2.2-50.3-3-45.8-2.4-138.4-2.4-176 0-2.2.1-9.2.5-15.5.9-6.3.4-13.5.9-16 1.1-11.5.9-19.8 1.6-23 2-1.9.2-6.9.7-11 1.1-4.1.3-8.2.7-9 .9-.9.2-4.7.6-8.4 1-3.7.3-8.2.8-10 1.1-3.5.5-7.1 1-13.6 1.9-9 1.3-11.7 1.7-26 4-29.6 4.9-52.3 9.6-75 15.6-6.3 1.6-12.2 3.1-13.1 3.3-.9.3-4.9 1.4-9 2.6-4.1 1.2-7.5 2.2-7.6 2.2-.6-.2-35.6 11.9-44.3 15.3-11.1 4.2-11.7 4.5-19 7.7-3 1.4-7.5 3.3-10 4.4-2.5 1-11.5 5.4-20 9.8-26.2 13.3-50.9 28.9-69.2 43.8l-4.6 3.9-12.5-25.3c-16.4-33.1-23.3-47.9-35.9-75.8-3.8-8.5-8-17.8-9.3-20.5-3.2-7-23.7-55.3-27.5-65-1.7-4.4-3.8-9.4-4.5-11-.7-1.7-3.6-9.1-6.5-16.5s-5.8-14.9-6.5-16.5c-2.1-4.8-16.5-43.2-19.7-52.5-1.6-4.7-3.3-9.4-3.8-10.5-1-2.4-.8-1.7-14.1-41-5.9-17.6-10.8-31.7-10.8-31.3-.1.6 6.1 22.4 13.4 47.3 2.4 8.2 7.1 23.4 14.5 47 19.7 63 48.3 144.4 72.8 207.5 8.7 22.3 23.6 59.7 26.1 65.5.5 1.1 1.6 3.6 2.4 5.5 4 9.1 4.5 7.6-6.5 19.1-37.8 39.4-62.3 83.2-76.7 137.1-1.7 6.2-3.2 12.4-3.5 13.8-.4 2.6-1.6 9-2.2 12.5-1 5.2-2.4 14.6-2.9 20-.4 3.3-.8 7-1 8.3-.6 3.3-1.8 30.4-1.8 38.7 0 8.2 1.3 37.8 1.7 40.3.2.9.7 4.8 1 8.7.4 3.8.9 8.1 1.1 9.5.2 1.4.7 5.2 1 8.4.3 3.3.8 6.2 1 6.5.1.3.6 3.1 1 6.1 1.7 14.2 12.3 61.3 17.9 79.8 19.2 62.8 38.1 110.5 67.5 170.2 17.6 36 31.9 62.2 61.1 112.5 19.9 34.4 71.7 113.6 98.4 150.6 2.3 3.1 4.8 6.6 5.6 7.9.8 1.2 2.4 3.4 3.5 4.8 1.1 1.5 5.2 7.2 9.2 12.7 3.9 5.5 7.5 10.5 8 11 .4.6 6.8 9.1 14.2 19 30.5 40.9 83.9 108.3 109.8 138.5 1.2 1.4 5 5.9 8.4 10 3.4 4.1 6.5 7.7 6.8 8 .3.3 2.8 3.2 5.5 6.5s5.4 6.4 6 7c.6.5 2.4 2.6 4 4.5 2.5 3 12.1 14.2 15.1 17.4.6.6 5.7 6.5 11.5 13.1 5.7 6.6 12.1 13.8 14.1 16 2 2.2 6.2 6.9 9.5 10.5 3.2 3.6 6.3 7 6.9 7.6.5.6 4.1 4.5 7.8 8.6 3.7 4.2 8 8.9 9.5 10.5 1.5 1.6 5.4 5.9 8.7 9.4 12.4 13.5 34.7 36.9 47.5 49.9l13.2 13.5-17.4-19.5c-9.6-10.7-21.8-24.7-27.2-31l-12-14c-7.2-8.4-33.7-40.5-42.1-51-5.5-6.9-10.3-12.7-10.6-13-.3-.3-3.5-4.4-7.2-9.2-3.7-4.9-10.7-13.9-15.5-20-39.4-50.4-92.7-126.2-127.7-181.8-1.2-1.9-3.8-6-5.7-9-3.5-5.6-7.5-12-9.3-15.2-.5-.9-3-5-5.5-9s-4.7-7.8-5-8.3c-.4-.9-5.4-9.3-8-13.5-3.5-5.7-9-15.3-9-15.6 0-.3-1-2.1-2.3-4.2-1.3-2-3.7-6.2-5.4-9.2-1.6-3-4.1-7.5-5.5-10-20.9-37.4-45.6-87.3-62.5-126.5-27-62.6-49.8-132-59.7-182-.9-4.4-1.9-9.1-2.2-10.5-1.3-6.2-6.2-36.1-6.9-42-.4-3.6-.9-7.2-1-8.1-.2-.9-.6-5.2-1-9.5s-.9-8.8-1.1-9.8c-2.2-11.9-2.2-76.6.1-90.7.2-1.3.6-5.3 1-8.9.3-3.6.8-7.4 1-8.5.3-1.1.7-4 1-6.5.2-2.5.7-5.9 1-7.5 7.2-40 19.2-77 35.2-108.9l4.5-9 6.2 12.4c5.7 11.4 10.9 21.4 21.9 42 10.5 19.8 33.1 59.7 42.4 74.9 3.4 5.7 6.3 10.5 6.3 10.8 0 .2 1.7 3 3.8 6.1 2 3.2 4.2 6.6 4.9 7.7 14.7 24.6 56.9 86.4 68.6 100.5.7.8 4.1 5.3 7.7 10 11.2 14.7 31.3 38.9 47.5 57 5.3 5.9 46.6 47.2 53 53 14.8 13.4 38.9 32.7 52.5 42.2 13 9 27.9 18.8 28.6 18.8.3 0 1.8.8 3.2 1.9 4.2 2.9 9.4 5.8 26.2 14.4 8.5 4.3 15.7 8.1 15.9 8.3.6.5-33.3 49.8-41.2 59.9-.4.5-3.5 4.8-7 9.5-9.3 12.7-29 39.3-30.4 41-.6.8-6.4 8.2-12.8 16.5-15.2 19.7-14.6 19-31.9 40.5-13.6 16.9-39.2 47.8-40.6 49-.3.3-2.5 3-5 6-5.1 6.2-24.7 28.7-35.4 40.5-13.1 14.5-15.1 17.1-5.5 7.4 8.6-8.8 35.8-37.2 42.5-44.5 10.5-11.3 23.6-25.6 27.4-29.8 2.5-2.8 5.4-6 6.5-7.2 4.1-4.3 9.3-10.1 17.9-19.9 4.9-5.5 10.1-11.4 11.7-13.2 1.5-1.7 7.7-8.7 13.6-15.5 9.4-10.8 13.3-15.3 22.6-26.2 1-1.1 2.8-3.2 4-4.6 13.7-15.8 58.7-70.7 73.7-89.7l9.4-12.1 11.1 3.8c20.5 6.9 44.5 12.7 60.4 14.5 3 .4 6.2.8 7.2 1 4.2.8 23.4 1.8 34.6 1.8 17.2-.1 30-1.1 46.8-3.7 8.5-1.4 13.1-2.3 25.7-5.1 36.9-8.2 85.2-30.5 124.8-57.4 53.4-36.4 111.3-92.9 160.3-156.6.4-.6 3.3-4.4 6.5-8.5s10.8-14.5 17-23c6.1-8.5 11.5-16 12-16.5 2.8-3.5 30.8-46.1 40.3-61.5 15.3-24.5 46.9-78.2 46.9-79.7 0-.2 2.2-4.3 4.9-9.1 11.5-20.4 46.8-89.9 58.3-114.7 2.6-5.5 6.7-14.4 9.2-19.7 2.5-5.3 4.6-9.9 4.6-10.2 0-.2 2-4.6 4.4-9.8 2.4-5.1 6.7-14.7 9.6-21.3 2.9-6.6 6.3-14.3 7.5-17 2.9-6.3 19.1-44.9 25.8-61.5 2.8-6.9 5.5-12.8 6.1-13.2.6-.4.8-.8.4-.8s.2-2.4 1.3-5.3c5.3-13 15.6-39.9 22.5-58.2 4.2-11 8.8-23.4 10.4-27.5 1.5-4.1 5.1-14 8-22 2.8-8 6.4-18.1 8-22.5 12.2-34 39.6-117.2 46.5-141.5.7-2.5 2.5-8.6 4-13.5 1.5-5 3.8-12.8 5.2-17.5 3-10.5 2.9-10.2 3.5-12 1.6-4.4 4.5-16.1 3.9-15.4-.5.5-2.7 7-5.1 14.4-5.7 17.7-19.3 57.2-23.5 68-.8 1.9-4.6 12.3-8.6 23-3.9 10.7-7.6 20.6-8.2 22-.6 1.4-1.1 2.7-1.2 3-.1.3-.5 1.4-1 2.5-.4 1.1-4.7 11.9-9.5 24-15.4 38.7-38.8 93.3-52.1 121.3-2.7 5.7-4.9 10.5-4.9 10.7 0 .2-4.5 9.6-9.9 20.9-9.9 20.3-10 20.6-12.5 19.6-2.7-1-37.5-9.4-47.9-11.5-1-.2-2.7-.7-3.7-1-1-.3-2.7-.7-3.7-.9-1-.2-11.2-2.5-22.8-5.1-11.5-2.6-21.7-4.8-22.5-5-.8-.2-5.1-1.1-9.5-2-13.2-2.7-55.8-11.3-59.5-12-1.9-.3-6.6-1.2-10.5-2-3.8-.8-8.6-1.7-10.5-2-1.9-.3-4.6-.8-6-1-1.4-.3-3.6-.8-5-1-9.4-1.8-47.1-8.5-50.5-8.9-1.1-.2-3.3-.6-5-.9-1.6-.3-4.8-.9-7-1.2-2.2-.3-7.8-1.2-12.5-2-4.7-.7-10.3-1.7-12.5-2-2.2-.3-5.1-.8-6.5-1-6.2-1-37.8-5.6-48.5-7.1-2.7-.3-5.7-.7-6.5-.9-.8-.2-4.5-.6-8.1-1-3.6-.4-7.2-1-7.8-1.5-.7-.4-1.4-2.5-1.6-4.6-.8-10.1-4.9-32.8-8.1-45.9-25.2-100.7-95-177.7-204.4-225.7-23.2-10.2-62.4-24.3-79-28.3-.8-.2-7.3-2-14.5-3.9-11.3-3.1-43.1-10.5-52-12-1.6-.3-4-.8-5.1-1-1.2-.2-3.7-.7-5.5-1-1.9-.3-4.5-.8-5.9-1.1-1.3-.2-4.2-.7-6.5-1-2.2-.3-4.7-.8-5.5-1-1.8-.5-5.6-1.1-13-2-3-.4-6.2-.9-7-1-2.8-.5-9.5-1.5-13.5-1.9-2.2-.3-7.6-1-12-1.5-7.6-1-11.1-1.3-23-2.5-10.8-1.1-15.3-1.5-22-2.1-3.8-.3-9.5-.7-12.5-1-29.9-2.4-69.7-3.7-114.3-3.9-17-.1-30.9 0-31 .1zm494.7 366c1.9 6.1 6.3 22.9 7.1 27.3.3 1.8.7 3.6.9 3.9.5.7 4.1 21 5.1 28.4.3 2.7.8 5.6 1 6.5.7 4.1 1.9 17.4 3.1 34.7.4 6.8.4 44.6 0 51.5-.2 2.5-.6 9.2-1 15-.4 5.8-.9 11.6-1.1 13-.2 1.4-.7 5.4-1.1 9-.3 3.6-.8 7.4-1 8.5-.2 1.1-.6 4-.9 6.4-.3 2.4-1.2 8.7-2.1 14-.9 5.3-1.8 10.9-2.1 12.6-7.3 44.8-26.3 109.1-49.6 168.5-15.9 40.4-44.4 101.6-65 139.5-2.4 4.4-6.3 11.6-8.7 16-2.3 4.4-5 9.1-5.8 10.5-.9 1.4-2.7 4.5-4 7-3.6 6.6-4.6 8.4-5.4 9.6-.7 1-16-1.3-33-5-20.1-4.4-52.8-15.4-73.8-24.8-16.8-7.6-25.3-11.9-47.2-24.2-19.5-10.9-54.3-35.2-74.3-51.7-5.2-4.4-25.4-21.7-29-24.8-10.4-9.4-50.6-50.2-61.6-62.6-36.7-41.3-78.9-96.6-106.9-140-10.5-16.4-15.1-23.5-18.2-28.5l-3.7-5.9 8.7-11.4c12.1-15.9 18.5-23 35.2-39.8 16.1-16.1 31.2-29 50-42.5 11.7-8.4 34.5-23.4 35.6-23.4.2 0 2.1-1 4.2-2.3 10.5-6.6 36.5-19.7 54.7-27.6 6.6-2.9 13.4-5.9 15-6.6 1.7-.7 10.9-4.2 20.5-7.8 43.1-16 93.4-29.4 143-38.2 4.7-.8 9.4-1.6 10.5-1.9 1.8-.3 9.6-1.6 13.5-2.1 17.8-2.6 25.2-3.7 28.5-4 2.2-.3 5.6-.7 7.5-1 1.9-.3 5.8-.8 8.5-1.1 2.8-.3 6.1-.7 7.5-.9 1.4-.2 5.7-.7 9.5-1 3.9-.3 7.9-.7 9-.9 1.1-.2 6.3-.7 11.5-1.1 5.2-.4 10.6-.9 12-1 1.4-.2 7.7-.6 14-1s13.8-.9 16.5-1c2.8-.2 10.8-.7 18-1 7.1-.4 13.1-.7 13.2-.8.1-.1 6.9-.3 15.1-.5l15-.3 1.6 4.8zm170.6-.2c2.5.2 8.8.7 14 1 11 .8 16.5 1.2 24.1 1.9 3 .3 8.3.8 11.9 1.1 8.8.8 15.6 1.4 21 2 2.5.3 7.2.7 10.5 1 3.3.3 7.6.7 9.5 1 5.3.7 11.9 1.4 17.5 2 2.8.3 6.6.7 8.5.9 11 1.5 16.7 2.2 25 3.1 3 .3 6.6.8 8 1 1.4.2 6.3.9 11 1.5s9.6 1.3 11 1.5c1.4.2 4.5.7 7 1 2.5.3 5.6.8 7 1 7.3 1 11.8 1.7 14.5 2.1 1.7.3 4.6.7 6.5 1 1.9.2 6 .8 9 1.4 3 .5 7.1 1.1 9 1.4 1.9.3 13 2.1 24.5 4.1 21.9 3.7 24.4 4.2 28.5 5 1.4.2 4.8.9 7.5 1.4 2.8.6 13.3 2.6 23.5 4.6 10.2 1.9 19.6 3.7 21 4 1.4.3 4 .8 5.8 1.1 1.7.3 3.2 1.1 3.2 1.7 0 1.1-16.4 34.1-24.5 49.2-34.9 65.3-55 99.6-87.3 149-32.5 49.7-72.9 103.2-104.6 138.5-26.1 29.1-56.2 59.2-76.1 76.1-2.2 1.9-4.2 3.7-4.5 4-.4.5-20.6 17-26 21.3-6.8 5.3-23.4 17.2-34.3 24.5-14.5 9.7-22.8 14.8-41.2 25.1-9.6 5.4-26.8 13.6-46 21.9-14.6 6.4-53.8 18.5-66.5 20.6-1.9.3-5.1 1-7 1.5-1.9.5-5.3 1.1-7.5 1.5-2.2.3-6.7 1-10 1.5-17.5 2.6-29.8 3.6-50.2 3.9-9.5.1-17.3 0-17.3-.3s9.6-14.8 21.3-32.3c17.9-26.7 34.1-51.7 43.2-66.6 6.6-10.8 31.6-52.9 33.7-56.7 1.4-2.5 5.7-10.1 9.5-17 3.9-6.9 9.4-16.8 12.2-22 5-9.1 34.8-68.3 35.2-69.8.1-.4 1.3-3.2 2.7-6.2 1.3-3 3.7-8.2 5.2-11.5 1.5-3.3 5.3-12.1 8.5-19.5 3.1-7.4 6.3-14.9 7-16.5 7.6-17.4 23.6-62.9 31.2-88.5 4.2-14.1 11.6-42.8 12.7-49 .2-1.4 1.2-5.9 2.1-10 1.9-9 4.1-21.3 5.5-31.2.6-4 1.2-8.4 1.5-9.8.5-3.5 1.3-10.5 2-17l1.1-11c.3-3 .7-16.1.9-29 .2-12.9.4-23.7.5-23.8 0-.4 20.3.6 28 1.3zM2184.8 869.3c-.3 1.9-.2 2.5.4 1.9.6-.6.8-1.8.6-2.8-.3-1.4-.5-1.2-1 .9zM384.6 887.9c-.4.5.3.7 1.4.4 2.3-.6 2.6-1.3.6-1.3-.8 0-1.7.4-2 .9z"/></svg>